# xmcd CD database file
#
# Track frame offsets:
#	183
#	17800
#	32948
#	52393
#	79123
#	93925
#	108505
#	119930
#	135505
#	151723
#	162990
#	179508
#	197033
#	211275
#	223140
#	236578
#	251938
#	265073
#
# Disc length: 3720 seconds
#
# Revision: 4
# Processed by: cddbd v1.5.1PL0 Copyright (c) Steve Scherf et al.
# Submitted via: CDex 1.51
#
DISCID=0e0e8612
DTITLE=Jimi Hendrix - The Collection (Object Enterprises)
DYEAR=1993
DGENRE=Progressive Rock
TTITLE0=Bring My Baby Back (Fake)
TTITLE1=Down Mean Blues (w. Mike Ephron 4/69)
TTITLE2=Suspicious (fake)
TTITLE3=Good Times (fake)
TTITLE4=Hot Trigger (fake)
TTITLE5=Monday Morning Blues (w. Mike Ephron 4/69)
TTITLE6=Win Your Love (3) Psycho
TTITLE7=Soul Food (1) mono (All I Want)
TTITLE8=Good Feeling (fake)
TTITLE9=Flashing (2)
TTITLE10=Hornet's Nest (2)
TTITLE11=Don't Accuse Me (2)
TTITLE12=Simon Says (1)
TTITLE13=Day Tripper (2)
TTITLE14=Tomorrow Never Knows (2i) Scene Club 1968 (Whoa Ech)
TTITLE15=Welcome Home (1)
TTITLE16=Strange Things (1)
TTITLE17=Odd Ball (1)
EXTD=YEAR: 1993
EXTT0=
EXTT1=
EXTT2=
EXTT3=
EXTT4=
EXTT5=
EXTT6=
EXTT7=
EXTT8=
EXTT9=
EXTT10=
EXTT11=
EXTT12=
EXTT13=
EXTT14=
EXTT15=
EXTT16=
EXTT17=
PLAYORDER=
